# xmcd
#
# Track frame offsets:
#	150
#	22759
#	47493
#	78436
#	98713
#	127042
#	144139
#	163877
#	181904
#	206044
#	223498
#	247202
#	274666
#	295112
#	308356
#
# Disc length: 4438 seconds
#
# Revision: 0
# Processed by: cddbd v1.5.1PL0 Copyright (c) Steve Scherf et al.
# Submitted via: dBpowerAMP V4.0
#
DISCID=d411540f
DTITLE=Julie Parsons - Timglaset - CD-BOK 09/10
DYEAR=2005
DGENRE=CD-BOK
TTITLE0=09.01
TTITLE1=09.02
TTITLE2=09.03
TTITLE3=09.04
TTITLE4=09.05
TTITLE5=09.06
TTITLE6=09.07
TTITLE7=09.08
TTITLE8=09.09
TTITLE9=09.10
TTITLE10=09.11
TTITLE11=09.12
TTITLE12=09.13
TTITLE13=09.14
TTITLE14=09.15
EXTD=
EXTT0=
EXTT1=
EXTT2=
EXTT3=
EXTT4=
EXTT5=
EXTT6=
EXTT7=
EXTT8=
EXTT9=
EXTT10=
EXTT11=
EXTT12=
EXTT13=
EXTT14=
PLAYORDER=
